<mxfile host="app.diagrams.net" agent="Mozilla/5.0 (Windows NT 10.0; Win64; x64; rv:143.0) Gecko/20100101 Firefox/143.0" version="28.2.5">
  <diagram name="Page-1" id="ZGqt2WLTpyfk8Mi-WL7V">
    <mxGraphModel grid="1" page="1" gridSize="10" guides="1" tooltips="1" connect="1" arrows="1" fold="1" pageScale="1" pageWidth="827" pageHeight="1169" math="0" shadow="0">
      <root>
        <mxCell id="0" />
        <mxCell id="1" parent="0" />
        <mxCell id="6VjdaXB0KzJo3s2eWHhS-82" value="V_pagina-admin" style="rounded=0;whiteSpace=wrap;html=1;fillColor=#ffe6cc;strokeColor=#d79b00;" vertex="1" parent="1">
          <mxGeometry x="190" y="50" width="120" height="60" as="geometry" />
        </mxCell>
        <mxCell id="6VjdaXB0KzJo3s2eWHhS-83" value="&lt;div&gt;C_revisar-admin&lt;/div&gt;&lt;div&gt;(route.ts)&lt;/div&gt;" style="rounded=0;whiteSpace=wrap;html=1;fillColor=#e1d5e7;strokeColor=#9673a6;" vertex="1" parent="1">
          <mxGeometry x="595" y="50" width="120" height="60" as="geometry" />
        </mxCell>
        <mxCell id="6VjdaXB0KzJo3s2eWHhS-84" value="reviews" style="rounded=0;whiteSpace=wrap;html=1;fillColor=#d5e8d4;strokeColor=#82b366;" vertex="1" parent="1">
          <mxGeometry x="935" y="50" width="120" height="60" as="geometry" />
        </mxCell>
        <mxCell id="6VjdaXB0KzJo3s2eWHhS-85" value="Actor" style="shape=umlActor;verticalLabelPosition=bottom;verticalAlign=top;html=1;outlineConnect=0;" vertex="1" parent="1">
          <mxGeometry x="80" y="50" width="30" height="60" as="geometry" />
        </mxCell>
        <mxCell id="6VjdaXB0KzJo3s2eWHhS-86" style="edgeStyle=orthogonalEdgeStyle;rounded=0;orthogonalLoop=1;jettySize=auto;html=1;exitX=0.5;exitY=1;exitDx=0;exitDy=0;" edge="1" parent="1" source="6VjdaXB0KzJo3s2eWHhS-82" target="6VjdaXB0KzJo3s2eWHhS-82">
          <mxGeometry relative="1" as="geometry" />
        </mxCell>
        <mxCell id="6VjdaXB0KzJo3s2eWHhS-87" value="" style="endArrow=none;dashed=1;html=1;dashPattern=1 3;strokeWidth=2;rounded=0;entryX=0.5;entryY=0.5;entryDx=0;entryDy=0;entryPerimeter=0;" edge="1" parent="1" target="6VjdaXB0KzJo3s2eWHhS-85">
          <mxGeometry width="50" height="50" relative="1" as="geometry">
            <mxPoint x="95" y="600" as="sourcePoint" />
            <mxPoint x="117" y="180" as="targetPoint" />
          </mxGeometry>
        </mxCell>
        <mxCell id="6VjdaXB0KzJo3s2eWHhS-88" value="" style="endArrow=none;dashed=1;html=1;dashPattern=1 3;strokeWidth=2;rounded=0;entryX=0.5;entryY=1;entryDx=0;entryDy=0;" edge="1" parent="1" target="6VjdaXB0KzJo3s2eWHhS-83">
          <mxGeometry width="50" height="50" relative="1" as="geometry">
            <mxPoint x="655" y="600" as="sourcePoint" />
            <mxPoint x="895" y="380" as="targetPoint" />
          </mxGeometry>
        </mxCell>
        <mxCell id="6VjdaXB0KzJo3s2eWHhS-89" value="" style="endArrow=none;dashed=1;html=1;dashPattern=1 3;strokeWidth=2;rounded=0;entryX=0.5;entryY=1;entryDx=0;entryDy=0;" edge="1" parent="1" target="6VjdaXB0KzJo3s2eWHhS-84">
          <mxGeometry width="50" height="50" relative="1" as="geometry">
            <mxPoint x="995" y="600" as="sourcePoint" />
            <mxPoint x="1065" y="380" as="targetPoint" />
          </mxGeometry>
        </mxCell>
        <mxCell id="6VjdaXB0KzJo3s2eWHhS-91" value="" style="endArrow=classic;html=1;rounded=0;" edge="1" parent="1">
          <mxGeometry width="50" height="50" relative="1" as="geometry">
            <mxPoint x="100" y="170" as="sourcePoint" />
            <mxPoint x="250" y="170" as="targetPoint" />
          </mxGeometry>
        </mxCell>
        <mxCell id="6VjdaXB0KzJo3s2eWHhS-92" value="Clic en confirmar pedido" style="edgeLabel;html=1;align=center;verticalAlign=middle;resizable=0;points=[];" connectable="0" vertex="1" parent="6VjdaXB0KzJo3s2eWHhS-91">
          <mxGeometry x="-0.1758" y="4" relative="1" as="geometry">
            <mxPoint x="8" y="-6" as="offset" />
          </mxGeometry>
        </mxCell>
        <mxCell id="6VjdaXB0KzJo3s2eWHhS-93" value="" style="endArrow=classic;html=1;rounded=0;" edge="1" parent="1">
          <mxGeometry width="50" height="50" relative="1" as="geometry">
            <mxPoint x="250" y="220" as="sourcePoint" />
            <mxPoint x="440" y="220" as="targetPoint" />
          </mxGeometry>
        </mxCell>
        <mxCell id="6VjdaXB0KzJo3s2eWHhS-94" value="Clic en moderar reviews" style="text;html=1;align=center;verticalAlign=middle;resizable=0;points=[];autosize=1;strokeColor=none;fillColor=none;" vertex="1" parent="1">
          <mxGeometry x="270" y="188" width="150" height="30" as="geometry" />
        </mxCell>
        <mxCell id="6VjdaXB0KzJo3s2eWHhS-95" value="V_revisar-reviews" style="rounded=0;whiteSpace=wrap;html=1;fillColor=#ffe6cc;strokeColor=#d79b00;" vertex="1" parent="1">
          <mxGeometry x="380" y="50" width="120" height="60" as="geometry" />
        </mxCell>
        <mxCell id="6VjdaXB0KzJo3s2eWHhS-96" value="" style="endArrow=none;dashed=1;html=1;dashPattern=1 3;strokeWidth=2;rounded=0;entryX=0.5;entryY=1;entryDx=0;entryDy=0;" edge="1" parent="1" target="6VjdaXB0KzJo3s2eWHhS-95">
          <mxGeometry width="50" height="50" relative="1" as="geometry">
            <mxPoint x="440" y="600" as="sourcePoint" />
            <mxPoint x="470" y="250" as="targetPoint" />
          </mxGeometry>
        </mxCell>
        <mxCell id="6VjdaXB0KzJo3s2eWHhS-97" value="" style="endArrow=classic;html=1;rounded=0;" edge="1" parent="1">
          <mxGeometry width="50" height="50" relative="1" as="geometry">
            <mxPoint x="440" y="250" as="sourcePoint" />
            <mxPoint x="650" y="250" as="targetPoint" />
          </mxGeometry>
        </mxCell>
        <mxCell id="6VjdaXB0KzJo3s2eWHhS-98" value="GET/api/revisar-admin()" style="text;html=1;align=center;verticalAlign=middle;resizable=0;points=[];autosize=1;strokeColor=none;fillColor=none;" vertex="1" parent="1">
          <mxGeometry x="445" y="218" width="150" height="30" as="geometry" />
        </mxCell>
        <mxCell id="6VjdaXB0KzJo3s2eWHhS-99" value="" style="endArrow=classic;html=1;rounded=0;" edge="1" parent="1">
          <mxGeometry width="50" height="50" relative="1" as="geometry">
            <mxPoint x="655" y="280" as="sourcePoint" />
            <mxPoint x="995" y="280" as="targetPoint" />
          </mxGeometry>
        </mxCell>
        <mxCell id="6VjdaXB0KzJo3s2eWHhS-100" value="SELECT * FROM reviews WHERE aprovado = false" style="text;html=1;align=center;verticalAlign=middle;resizable=0;points=[];autosize=1;strokeColor=none;fillColor=none;" vertex="1" parent="1">
          <mxGeometry x="675" y="248" width="300" height="30" as="geometry" />
        </mxCell>
        <mxCell id="6VjdaXB0KzJo3s2eWHhS-101" value="" style="endArrow=classic;html=1;rounded=0;" edge="1" parent="1">
          <mxGeometry width="50" height="50" relative="1" as="geometry">
            <mxPoint x="995" y="340" as="sourcePoint" />
            <mxPoint x="655" y="340" as="targetPoint" />
          </mxGeometry>
        </mxCell>
        <mxCell id="6VjdaXB0KzJo3s2eWHhS-102" value="NULL" style="text;html=1;align=center;verticalAlign=middle;resizable=0;points=[];autosize=1;strokeColor=none;fillColor=none;" vertex="1" parent="1">
          <mxGeometry x="800" y="308" width="50" height="30" as="geometry" />
        </mxCell>
        <mxCell id="6VjdaXB0KzJo3s2eWHhS-103" value="" style="endArrow=classic;html=1;rounded=0;" edge="1" parent="1">
          <mxGeometry width="50" height="50" relative="1" as="geometry">
            <mxPoint x="650" y="370" as="sourcePoint" />
            <mxPoint x="440" y="370" as="targetPoint" />
          </mxGeometry>
        </mxCell>
        <mxCell id="6VjdaXB0KzJo3s2eWHhS-104" value="{ review = NULL }" style="text;html=1;align=center;verticalAlign=middle;resizable=0;points=[];autosize=1;strokeColor=none;fillColor=none;" vertex="1" parent="1">
          <mxGeometry x="460" y="330" width="120" height="30" as="geometry" />
        </mxCell>
        <mxCell id="6VjdaXB0KzJo3s2eWHhS-105" value="" style="endArrow=classic;html=1;rounded=0;" edge="1" parent="1">
          <mxGeometry width="50" height="50" relative="1" as="geometry">
            <mxPoint x="440" y="450" as="sourcePoint" />
            <mxPoint x="95" y="450" as="targetPoint" />
          </mxGeometry>
        </mxCell>
        <mxCell id="6VjdaXB0KzJo3s2eWHhS-106" value="Muestra&quot; Todas las reseÃ±as han sido revisadas y moderadas&quot;" style="text;html=1;align=center;verticalAlign=middle;resizable=0;points=[];autosize=1;strokeColor=none;fillColor=none;" vertex="1" parent="1">
          <mxGeometry x="95" y="420" width="350" height="30" as="geometry" />
        </mxCell>
        <mxCell id="6VjdaXB0KzJo3s2eWHhS-139" value="" style="endArrow=none;dashed=1;html=1;dashPattern=1 3;strokeWidth=2;rounded=0;entryX=0.5;entryY=1;entryDx=0;entryDy=0;" edge="1" parent="1" target="6VjdaXB0KzJo3s2eWHhS-82">
          <mxGeometry width="50" height="50" relative="1" as="geometry">
            <mxPoint x="250" y="600" as="sourcePoint" />
            <mxPoint x="330" y="280" as="targetPoint" />
          </mxGeometry>
        </mxCell>
      </root>
    </mxGraphModel>
  </diagram>
</mxfile>
